<svg xmlns="http://www.w3.org/2000/svg" version="1.1" xmlns:xlink="http://www.w3.org/1999/xlink" xmlns:svgjs="http://svgjs.dev/svgjs" width="1000" height="1000" viewBox="0 0 1000 1000"><rect width="1000" height="1000" fill="#ffffff"></rect><g transform="matrix(0.7,0,0,0.7,150,150)"><svg viewBox="0 0 280 280" data-background-color="#ffffff" preserveAspectRatio="xMidYMid meet" height="1000" width="1000" xmlns="http://www.w3.org/2000/svg" xmlns:xlink="http://www.w3.org/1999/xlink"><g id="tight-bounds" transform="matrix(1,0,0,1,0,0)"><svg viewBox="0 0 280 280" height="280" width="280"><g><svg viewBox="0 0 280 280" height="280" width="280"><g><svg viewBox="0 0 280 280" height="280" width="280"><g id="textblocktransform"><svg viewBox="0 0 280 280" height="280" width="280" id="textblock"><g><svg viewBox="0 0 280 280" height="280" width="280"><g transform="matrix(1,0,0,1,74.00336708925556,74.00336708925556)"><svg viewBox="0 0 131.99326582148888 131.99326582148888" height="131.99326582148888" width="131.99326582148888"><g><svg xmlns="http://www.w3.org/2000/svg" xmlns:xlink="http://www.w3.org/1999/xlink" version="1.1" x="0" y="0" viewBox="29.1 29.1 41.800000000000004 41.800000000000004" enable-background="new 0 0 100 100" xml:space="preserve" height="131.99326582148888" width="131.99326582148888" class="icon-xg-0" data-fill-palette-color="accent" id="xg-0"><g fill="#e363aa" data-fill-palette-color="accent"><path d="M42.494 59.305L58.608 50l-16.114-9.302C42.494 40.698 42.494 59.305 42.494 59.305zM44.693 44.508L54.208 50l-9.515 5.495V44.508z" fill="#e363aa" data-fill-palette-color="accent"></path><path d="M66.313 29.1h-2.231H35.918h-2.233H29.1v41.8h4.585 2.233 28.163 2.231H70.9V29.1H66.313zM68.701 68.7H31.299V31.3h37.402C68.701 31.3 68.701 68.7 68.701 68.7z" fill="#e363aa" data-fill-palette-color="accent"></path><rect x="33.685" y="32.7" width="2.233" height="2.2" fill="#e363aa" data-fill-palette-color="accent"></rect><rect x="33.685" y="36.3" width="2.233" height="2.2" fill="#e363aa" data-fill-palette-color="accent"></rect><rect x="33.685" y="39.9" width="2.233" height="2.2" fill="#e363aa" data-fill-palette-color="accent"></rect><rect x="33.685" y="43.5" width="2.233" height="2.2" fill="#e363aa" data-fill-palette-color="accent"></rect><rect x="33.685" y="47.1" width="2.233" height="2.2" fill="#e363aa" data-fill-palette-color="accent"></rect><rect x="33.685" y="50.7" width="2.233" height="2.2" fill="#e363aa" data-fill-palette-color="accent"></rect><rect x="33.685" y="54.299" width="2.233" height="2.2" fill="#e363aa" data-fill-palette-color="accent"></rect><rect x="33.685" y="57.9" width="2.233" height="2.2" fill="#e363aa" data-fill-palette-color="accent"></rect><rect x="33.685" y="61.5" width="2.233" height="2.2" fill="#e363aa" data-fill-palette-color="accent"></rect><rect x="33.685" y="65.099" width="2.233" height="2.2" fill="#e363aa" data-fill-palette-color="accent"></rect><rect x="64.081" y="32.7" width="2.231" height="2.2" fill="#e363aa" data-fill-palette-color="accent"></rect><rect x="64.081" y="36.3" width="2.231" height="2.2" fill="#e363aa" data-fill-palette-color="accent"></rect><rect x="64.081" y="39.9" width="2.231" height="2.2" fill="#e363aa" data-fill-palette-color="accent"></rect><rect x="64.081" y="43.5" width="2.231" height="2.2" fill="#e363aa" data-fill-palette-color="accent"></rect><rect x="64.081" y="47.1" width="2.231" height="2.2" fill="#e363aa" data-fill-palette-color="accent"></rect><rect x="64.081" y="50.7" width="2.231" height="2.2" fill="#e363aa" data-fill-palette-color="accent"></rect><rect x="64.081" y="54.299" width="2.231" height="2.2" fill="#e363aa" data-fill-palette-color="accent"></rect><rect x="64.081" y="57.9" width="2.231" height="2.2" fill="#e363aa" data-fill-palette-color="accent"></rect><rect x="64.081" y="61.5" width="2.231" height="2.2" fill="#e363aa" data-fill-palette-color="accent"></rect><rect x="64.081" y="65.099" width="2.231" height="2.2" fill="#e363aa" data-fill-palette-color="accent"></rect></g></svg></g></svg></g><g><path d="M10.132 91.712l12.962 1.321 0.087-0.229-10.602-7.574c-2.293-1.62-3.65-3.294-4.073-5.022-0.422-1.728-0.111-3.977 0.935-6.748v0l26.691 10.074-1.352 3.585-22.65-8.549c0.03 0.766 0.235 1.417 0.614 1.952 0.379 0.535 1.019 1.147 1.92 1.836v0l14.56 10.94-1.267 3.356-18.171-1.37c-1.157-0.088-2.046-0.061-2.667 0.083-0.62 0.143-1.195 0.493-1.724 1.048v0l22.649 8.549-1.353 3.584-26.691-10.074c1.046-2.771 2.302-4.656 3.769-5.657 1.467-1 3.588-1.369 6.363-1.105z" fill="#edbbba" data-fill-palette-color="primary"></path><path d="M54.424 36.122v0c0.308-2.731 1.595-4.962 3.862-6.694v0c1.101-0.841 2.293-1.418 3.575-1.731 1.282-0.313 2.566-0.378 3.85-0.197 1.284 0.182 2.506 0.607 3.667 1.277 1.161 0.669 2.17 1.565 3.028 2.688v-0.001c0.858 1.123 1.462 2.328 1.813 3.616 0.351 1.288 0.451 2.571 0.298 3.849-0.152 1.278-0.553 2.499-1.202 3.663-0.65 1.163-1.537 2.174-2.66 3.031v0c-1.144 0.874-2.358 1.468-3.64 1.78-1.282 0.313-2.56 0.374-3.834 0.185-1.273-0.19-2.485-0.624-3.634-1.301-1.15-0.677-2.154-1.577-3.012-2.7v0c-1.748-2.289-2.452-4.777-2.111-7.465zM60.364 32.149v0c-1.512 1.154-2.347 2.579-2.506 4.273-0.159 1.694 0.372 3.34 1.592 4.938 1.22 1.598 2.669 2.543 4.346 2.835 1.676 0.292 3.27-0.139 4.781-1.293v0c1.533-1.171 2.37-2.605 2.51-4.301 0.14-1.697-0.392-3.333-1.596-4.91-1.204-1.576-2.643-2.52-4.317-2.831-1.674-0.311-3.277 0.118-4.81 1.289z" fill="#edbbba" data-fill-palette-color="primary"></path><path d="M124.214 23.631v0c-2.638-1.83-4.698-3.979-6.181-6.449-1.483-2.47-3.194-6.499-5.132-12.088v0l3.708-0.557c2.02 6.318 4.301 10.99 6.843 14.016v0c1.542-3.638 2.351-8.774 2.427-15.407v0l3.708-0.557c-0.212 5.911-0.664 10.265-1.357 13.062-0.693 2.797-2.031 5.457-4.016 7.98z" fill="#edbbba" data-fill-palette-color="primary"></path><path d="M184.405 9.255l-5.61 18.741-3.436-1.028 4.629-15.462-3.202-0.958 2.543-2.812zM181.982 4.275v0c-0.206-0.544-0.231-1.076-0.075-1.596 0.156-0.521 0.467-0.945 0.934-1.274 0.467-0.328 1.052-0.387 1.754-0.176 0.703 0.21 1.159 0.581 1.369 1.111 0.21 0.531 0.237 1.056 0.081 1.577-0.156 0.521-0.467 0.945-0.934 1.274-0.467 0.328-1.052 0.387-1.754 0.176-0.703-0.21-1.161-0.574-1.375-1.092z" fill="#edbbba" data-fill-palette-color="primary"></path><path d="M237.067 41.093v0c3.265 3.273 3.663 6.247 1.193 8.922v0c-3.078 3.334-6.803 2.983-11.175-1.053v0l-1.228-1.133 2.129-2.306 1.437 1.327c1.338 1.235 2.455 1.887 3.352 1.957 0.897 0.07 1.788-0.374 2.672-1.333v0c0.571-0.619 0.77-1.295 0.597-2.028-0.174-0.733-0.62-1.432-1.338-2.096v0c-1.418-1.309-2.991-1.837-4.722-1.585-1.73 0.252-3.24 1.077-4.53 2.475v0c-1.364 1.477-2.035 3.076-2.015 4.796 0.021 1.72 0.73 3.225 2.128 4.515v0c1.258 1.161 2.572 1.801 3.941 1.919v0l0.166 3.426c-2.41-0.154-4.553-1.097-6.429-2.829v0c-2.276-2.101-3.475-4.447-3.599-7.038-0.123-2.591 0.793-4.944 2.747-7.061v0c2.175-2.356 4.604-3.645 7.286-3.868 2.683-0.223 5.146 0.775 7.388 2.993z" fill="#edbbba" data-fill-palette-color="primary"></path><path d="M271.119 95.296l2.431 6.791-3.223 1.154-2.431-6.792c-0.266-0.742-0.635-1.331-1.109-1.767-0.474-0.436-0.966-0.563-1.478-0.38v0c-0.307 0.11-0.559 0.272-0.757 0.487-0.197 0.215-0.343 0.433-0.436 0.654-0.094 0.221-0.162 0.534-0.205 0.939-0.043 0.405-0.062 0.715-0.057 0.93 0.005 0.215 0.033 1.121 0.086 2.718 0.052 1.597 0.049 2.796-0.012 3.597-0.06 0.801-0.285 1.48-0.677 2.039-0.392 0.559-0.819 0.978-1.28 1.259-0.462 0.281-0.936 0.508-1.423 0.682v0c-3.428 1.227-5.984-0.513-7.669-5.219v0l-2.376-6.639 3.223-1.153 2.376 6.638c0.861 2.405 1.931 3.378 3.21 2.92v0c0.614-0.22 1-0.755 1.157-1.605 0.157-0.85 0.196-1.831 0.116-2.941-0.08-1.111-0.116-2.238-0.107-3.382 0.009-1.143 0.304-2.215 0.883-3.217 0.58-1.001 1.483-1.721 2.712-2.161v0c1.56-0.559 2.972-0.386 4.233 0.52 1.262 0.905 2.199 2.214 2.813 3.928z" fill="#edbbba" data-fill-palette-color="primary"></path><path d="M31.943 182.348l-10.603 7.574 0.087 0.229 12.962-1.32c2.792-0.299 4.917 0.061 6.376 1.078 1.459 1.018 2.711 2.912 3.756 5.683v0l-26.691 10.074-1.353-3.584 22.65-8.549c-0.529-0.555-1.113-0.909-1.751-1.06-0.638-0.151-1.523-0.188-2.655-0.108v0l-18.157 1.407-1.266-3.355 14.544-10.979c0.927-0.698 1.576-1.306 1.947-1.824 0.371-0.518 0.572-1.16 0.602-1.926v0l-22.649 8.549-1.353-3.584 26.691-10.075c1.046 2.771 1.349 5.016 0.909 6.736-0.44 1.72-1.789 3.398-4.046 5.034z" fill="#e363aa" data-fill-palette-color="secondary"></path><path d="M63.181 234.705v0c2.715-0.422 5.207 0.233 7.474 1.965v0c1.101 0.841 1.971 1.839 2.611 2.994 0.639 1.155 1.04 2.376 1.203 3.662 0.163 1.287 0.074 2.578-0.266 3.874-0.34 1.296-0.939 2.505-1.797 3.628v0c-0.858 1.123-1.861 2.023-3.011 2.7-1.15 0.677-2.361 1.111-3.635 1.301-1.273 0.19-2.557 0.124-3.85-0.197-1.293-0.321-2.501-0.91-3.624-1.768v0c-1.144-0.874-2.036-1.889-2.676-3.043-0.639-1.155-1.035-2.372-1.186-3.65-0.152-1.278-0.052-2.561 0.298-3.849 0.351-1.288 0.955-2.493 1.813-3.616v0c1.748-2.289 3.964-3.623 6.646-4.001zM68.577 239.391v0c-1.512-1.154-3.105-1.586-4.781-1.294-1.676 0.292-3.125 1.237-4.346 2.836-1.22 1.598-1.751 3.244-1.592 4.938 0.159 1.694 0.994 3.119 2.506 4.273v0c1.533 1.171 3.137 1.601 4.81 1.289 1.674-0.311 3.113-1.255 4.317-2.831 1.204-1.576 1.736-3.213 1.596-4.91-0.14-1.697-0.977-3.131-2.51-4.301z" fill="#e363aa" data-fill-palette-color="secondary"></path><path d="M121.177 278.895v0c-1.984-2.523-3.323-5.183-4.015-7.98-0.693-2.797-1.145-7.151-1.357-13.062v0l3.708 0.556c0.076 6.633 0.885 11.769 2.426 15.407v0c2.542-3.025 4.823-7.697 6.844-14.015v0l3.708 0.556c-1.938 5.589-3.649 9.618-5.132 12.088-1.483 2.47-3.544 4.62-6.182 6.45z" fill="#e363aa" data-fill-palette-color="secondary"></path><path d="M178.795 254.296l5.61 18.742-3.436 1.028-4.628-15.461-3.202 0.958 0.58-3.747zM174.034 251.467v0c-0.471-0.341-0.784-0.772-0.94-1.293-0.156-0.521-0.129-1.046 0.081-1.577 0.21-0.531 0.666-0.901 1.369-1.111 0.703-0.21 1.288-0.151 1.755 0.176 0.467 0.328 0.778 0.753 0.934 1.274 0.156 0.521 0.129 1.046-0.081 1.577-0.21 0.531-0.666 0.901-1.369 1.111-0.703 0.21-1.286 0.158-1.749-0.157z" fill="#e363aa" data-fill-palette-color="secondary"></path><path d="M223.245 226.226v0c3.523-2.993 6.519-3.152 8.989-0.477v0c3.078 3.334 2.43 7.019-1.942 11.055v0l-1.228 1.134-2.129-2.306 1.438-1.327c1.338-1.235 2.077-2.296 2.218-3.185 0.141-0.888-0.23-1.812-1.115-2.77v0c-0.571-0.619-1.229-0.871-1.974-0.757-0.745 0.114-1.477 0.503-2.196 1.167v0c-1.418 1.309-2.07 2.835-1.956 4.58 0.113 1.745 0.814 3.316 2.104 4.713v0c1.364 1.477 2.904 2.274 4.62 2.391 1.716 0.117 3.273-0.47 4.671-1.76v0c1.258-1.161 2-2.42 2.227-3.776v0l3.428 0.109c-0.346 2.39-1.457 4.451-3.333 6.183v0c-2.276 2.101-4.71 3.109-7.303 3.025-2.592-0.084-4.865-1.185-6.819-3.301v0c-2.175-2.356-3.266-4.88-3.273-7.573-0.008-2.692 1.183-5.067 3.573-7.125z" fill="#e363aa" data-fill-palette-color="secondary"></path><path d="M252.7 180.404l2.432-6.792 3.223 1.154-2.431 6.792c-0.266 0.742-0.354 1.432-0.265 2.069 0.089 0.638 0.389 1.048 0.901 1.232v0c0.307 0.11 0.605 0.144 0.894 0.103 0.289-0.041 0.54-0.117 0.752-0.228 0.213-0.111 0.464-0.31 0.755-0.596 0.29-0.286 0.501-0.513 0.634-0.682 0.133-0.169 0.686-0.887 1.659-2.155 0.973-1.268 1.737-2.192 2.291-2.773 0.554-0.581 1.16-0.963 1.817-1.146 0.657-0.183 1.254-0.237 1.789-0.16 0.535 0.076 1.046 0.201 1.532 0.375v0c3.428 1.227 4.299 4.194 2.615 8.901v0l-2.377 6.639-3.223-1.154 2.376-6.639c0.861-2.405 0.652-3.836-0.627-4.293v0c-0.614-0.22-1.251-0.051-1.913 0.506-0.661 0.557-1.313 1.29-1.956 2.2-0.643 0.91-1.331 1.803-2.064 2.681-0.733 0.878-1.641 1.519-2.724 1.925-1.083 0.406-2.239 0.389-3.466-0.051v0c-1.56-0.559-2.541-1.588-2.942-3.087-0.401-1.5-0.295-3.107 0.319-4.821z" fill="#e363aa" data-fill-palette-color="secondary"></path><path d="M1.434 141.146c0-6.019 4.879-10.898 10.899-10.898 6.019 0 10.898 4.879 10.898 10.898 0 6.019-4.879 10.898-10.898 10.899-6.019 0-10.898-4.879-10.899-10.899z" fill="#edbbba" data-fill-palette-color="primary"></path><path d="M258.204 141.146c0-6.019 4.879-10.898 10.898-10.898 6.019 0 10.898 4.879 10.898 10.898 0 6.019-4.879 10.898-10.898 10.899-6.019 0-10.898-4.879-10.898-10.899z" fill="#edbbba" data-fill-palette-color="primary"></path></g></svg></g></svg></g></svg></g><g></g></svg></g><defs></defs></svg><rect width="280" height="280" fill="none" stroke="none" visibility="hidden"></rect></g></svg></g></svg>